HIERARCHY
ROOT Hips
{
	OFFSET 0.000000 83.214638 0.000000
	CHANNELS 6 Xposition Yposition Zposition Xrotation Yrotation Zrotation
	JOINT Pelvis
	{
		OFFSET 0.000000 0.000000 0.000000
		CHANNELS 3 Xrotation Yrotation Zrotation
		JOINT LeftUpLeg
		{
			OFFSET 8.479700 -4.795502 -0.379100
			CHANNELS 3 Xrotation Yrotation Zrotation
			JOINT LeftLeg
			{
				OFFSET 0.024144 -32.555107 0.112900
				CHANNELS 3 Xrotation Yrotation Zrotation
				JOINT LeftFoot
				{
					OFFSET -0.024144 -32.638630 -3.012600
					CHANNELS 3 Xrotation Yrotation Zrotation
					JOINT LeftToeBase
					{
						OFFSET 0.970200 -13.225400 11.864200
						CHANNELS 3 Xrotation Yrotation Zrotation
						End Site
						{
							OFFSET 0.000000 12.319262 0.000000
						}
					}
					JOINT LFootTongue
					{
						OFFSET 1.142400 -1.059800 6.665200
						CHANNELS 3 Xrotation Yrotation Zrotation
						End Site
						{
							OFFSET 0.000000 12.319262 0.000000
						}
					}
				}
				JOINT LeftPantLeg
				{
					OFFSET 0.918482 -16.533964 -2.284700
					CHANNELS 3 Xrotation Yrotation Zrotation
					End Site
					{
						OFFSET 0.350399 24.744368 0.000000
					}
				}
			}
		}
		JOINT RightUpLeg
		{
			OFFSET -8.479700 -4.795502 -0.379100
			CHANNELS 3 Xrotation Yrotation Zrotation
			JOINT RightLeg
			{
				OFFSET -0.023144 -32.555092 0.112900
				CHANNELS 3 Xrotation Yrotation Zrotation
				JOINT RightFoot
				{
					OFFSET 0.023144 -32.638641 -3.012700
					CHANNELS 3 Xrotation Yrotation Zrotation
					JOINT RightToeBase
					{
						OFFSET -0.970200 -13.225400 11.864200
						CHANNELS 3 Xrotation Yrotation Zrotation
						End Site
						{
							OFFSET 0.000000 12.319244 0.000000
						}
					}
					JOINT RFootTongue
					{
						OFFSET -1.142200 -1.059800 6.665200
						CHANNELS 3 Xrotation Yrotation Zrotation
						End Site
						{
							OFFSET 0.000000 12.319243 0.000000
						}
					}
				}
				JOINT RightPantLeg
				{
					OFFSET -0.919482 -16.533978 -2.284800
					CHANNELS 3 Xrotation Yrotation Zrotation
					End Site
					{
						OFFSET -0.350400 24.744419 0.000000
					}
				}
			}
		}
	}
	JOINT Spine
	{
		OFFSET 0.000000 7.722000 1.166200
		CHANNELS 3 Xrotation Yrotation Zrotation
		JOINT Spine1
		{
			OFFSET 0.000000 12.024101 0.248800
			CHANNELS 3 Xrotation Yrotation Zrotation
			JOINT Spine2
			{
				OFFSET 0.000000 11.502998 -0.491200
				CHANNELS 3 Xrotation Yrotation Zrotation
				JOINT Neck
				{
					OFFSET 0.000000 18.430702 -3.123100
					CHANNELS 3 Xrotation Yrotation Zrotation
					JOINT Head
					{
						OFFSET 0.000000 9.051102 1.034000
						CHANNELS 3 Xrotation Yrotation Zrotation
						JOINT HairB
						{
							OFFSET 0.208400 24.786102 24.822300
							CHANNELS 3 Xrotation Yrotation Zrotation
							End Site
							{
								OFFSET 0.000000 32.263779 0.000000
							}
						}
						JOINT HairA
						{
							OFFSET -7.081100 24.428299 23.196600
							CHANNELS 3 Xrotation Yrotation Zrotation
							End Site
							{
								OFFSET 0.000000 32.263779 0.000000
							}
						}
						JOINT Hat
						{
							OFFSET 16.728800 15.048294 -15.439601
							CHANNELS 3 Xrotation Yrotation Zrotation
							End Site
							{
								OFFSET 0.000000 32.263779 0.000000
							}
						}
					}
				}
				JOINT LeftShoulder
				{
					OFFSET 6.197800 13.665199 -4.064700
					CHANNELS 3 Xrotation Yrotation Zrotation
					JOINT LeftArm
					{
						OFFSET 7.778100 -0.187103 -1.709300
						CHANNELS 3 Xrotation Yrotation Zrotation
						JOINT LeftForeArm
						{
							OFFSET 22.049376 0.000000 0.000000
							CHANNELS 3 Xrotation Yrotation Zrotation
							JOINT LeftHand
							{
								OFFSET 23.009392 0.000000 0.000000
								CHANNELS 3 Xrotation Yrotation Zrotation
								JOINT LeftHandThumb1
								{
									OFFSET 3.507191 -2.063065 3.133727
									CHANNELS 3 Xrotation Yrotation Zrotation
									JOINT LeftHandThumb2
									{
										OFFSET 3.101337 -1.790558 1.790558
										CHANNELS 3 Xrotation Yrotation Zrotation
										JOINT LeftHandThumb3
										{
											OFFSET 3.058640 -1.765907 1.765906
											CHANNELS 3 Xrotation Yrotation Zrotation
											End Site
											{
												OFFSET -0.415260 3.926476 -0.049563
											}
										}
									}
								}
								JOINT LeftHandIndex1
								{
									OFFSET 11.334419 -0.901459 3.706815
									CHANNELS 3 Xrotation Yrotation Zrotation
									JOINT LeftHandIndex2
									{
										OFFSET 3.283112 0.000000 0.000000
										CHANNELS 3 Xrotation Yrotation Zrotation
										JOINT LeftHandIndex3
										{
											OFFSET 3.323853 0.000000 0.000000
											CHANNELS 3 Xrotation Yrotation Zrotation
											End Site
											{
												OFFSET -1.135597 3.097809 0.402452
											}
										}
									}
								}
								JOINT LeftHandMiddle1
								{
									OFFSET 11.335861 0.000000 0.000000
									CHANNELS 3 Xrotation Yrotation Zrotation
									JOINT LeftHandMiddle2
									{
										OFFSET 3.410492 0.000000 0.000000
										CHANNELS 3 Xrotation Yrotation Zrotation
										JOINT LeftHandMiddle3
										{
											OFFSET 3.312172 0.000000 0.000000
											CHANNELS 3 Xrotation Yrotation Zrotation
											End Site
											{
												OFFSET -1.150200 3.080154 0.400270
											}
										}
									}
								}
								JOINT LeftHandRing1
								{
									OFFSET 11.514786 -0.013176 -3.003090
									CHANNELS 3 Xrotation Yrotation Zrotation
									JOINT LeftHandRing2
									{
										OFFSET 3.053307 0.000000 0.000000
										CHANNELS 3 Xrotation Yrotation Zrotation
										JOINT LeftHandRing3
										{
											OFFSET 3.295807 0.000000 0.000000
											CHANNELS 3 Xrotation Yrotation Zrotation
											End Site
											{
												OFFSET -1.281006 3.013344 0.375733
											}
										}
									}
								}
								JOINT LeftHandPinky1
								{
									OFFSET 10.518692 -0.960396 -5.730441
									CHANNELS 3 Xrotation Yrotation Zrotation
									JOINT LeftHandPinky2
									{
										OFFSET 2.861649 0.000000 0.000000
										CHANNELS 3 Xrotation Yrotation Zrotation
										JOINT LeftHandPinky3
										{
											OFFSET 2.863380 0.000000 0.000000
											CHANNELS 3 Xrotation Yrotation Zrotation
											End Site
											{
												OFFSET -0.843597 2.711159 0.369971
											}
										}
									}
								}
							}
							JOINT LSleeve
							{
								OFFSET 6.676277 -0.344902 -1.011730
								CHANNELS 3 Xrotation Yrotation Zrotation
								End Site
								{
									OFFSET 0.000000 14.885353 0.000000
								}
							}
						}
					}
				}
				JOINT RightShoulder
				{
					OFFSET -6.197800 13.665199 -4.064700
					CHANNELS 3 Xrotation Yrotation Zrotation
					JOINT RightArm
					{
						OFFSET -7.778100 -0.187103 -1.709300
						CHANNELS 3 Xrotation Yrotation Zrotation
						JOINT RightForeArm
						{
							OFFSET -22.049376 0.000000 0.000000
							CHANNELS 3 Xrotation Yrotation Zrotation
							JOINT RightHand
							{
								OFFSET -23.009392 0.000000 0.000000
								CHANNELS 3 Xrotation Yrotation Zrotation
								JOINT RightHandThumb1
								{
									OFFSET -3.507191 -2.063065 3.133727
									CHANNELS 3 Xrotation Yrotation Zrotation
									JOINT RightHandThumb2
									{
										OFFSET -3.101337 -1.790558 1.790558
										CHANNELS 3 Xrotation Yrotation Zrotation
										JOINT RightHandThumb3
										{
											OFFSET -3.058640 -1.765907 1.765906
											CHANNELS 3 Xrotation Yrotation Zrotation
											End Site
											{
												OFFSET 0.415260 3.926476 -0.049563
											}
										}
									}
								}
								JOINT RightHandIndex1
								{
									OFFSET -11.334419 -0.901459 3.706815
									CHANNELS 3 Xrotation Yrotation Zrotation
									JOINT RightHandIndex2
									{
										OFFSET -3.283112 0.000000 0.000000
										CHANNELS 3 Xrotation Yrotation Zrotation
										JOINT RightHandIndex3
										{
											OFFSET -3.323853 0.000000 0.000000
											CHANNELS 3 Xrotation Yrotation Zrotation
											End Site
											{
												OFFSET 1.135597 3.097809 0.402452
											}
										}
									}
								}
								JOINT RightHandMiddle1
								{
									OFFSET -11.335861 0.000000 0.000000
									CHANNELS 3 Xrotation Yrotation Zrotation
									JOINT RightHandMiddle2
									{
										OFFSET -3.410492 0.000000 0.000000
										CHANNELS 3 Xrotation Yrotation Zrotation
										JOINT RightHandMiddle3
										{
											OFFSET -3.312172 0.000000 0.000000
											CHANNELS 3 Xrotation Yrotation Zrotation
											End Site
											{
												OFFSET 1.150200 3.080154 0.400270
											}
										}
									}
								}
								JOINT RightHandRing1
								{
									OFFSET -11.514786 -0.013176 -3.003090
									CHANNELS 3 Xrotation Yrotation Zrotation
									JOINT RightHandRing2
									{
										OFFSET -3.053307 0.000000 0.000000
										CHANNELS 3 Xrotation Yrotation Zrotation
										JOINT RightHandRing3
										{
											OFFSET -3.295807 0.000000 0.000000
											CHANNELS 3 Xrotation Yrotation Zrotation
											End Site
											{
												OFFSET 1.281006 3.013344 0.375733
											}
										}
									}
								}
								JOINT RightHandPinky1
								{
									OFFSET -10.518692 -0.960396 -5.730441
									CHANNELS 3 Xrotation Yrotation Zrotation
									JOINT RightHandPinky2
									{
										OFFSET -2.861649 0.000000 0.000000
										CHANNELS 3 Xrotation Yrotation Zrotation
										JOINT RightHandPinky3
										{
											OFFSET -2.863380 0.000000 0.000000
											CHANNELS 3 Xrotation Yrotation Zrotation
											End Site
											{
												OFFSET 0.843597 2.711159 0.369971
											}
										}
									}
								}
							}
							JOINT RSleeve
							{
								OFFSET -6.676277 -0.344902 -1.011730
								CHANNELS 3 Xrotation Yrotation Zrotation
								End Site
								{
									OFFSET 0.000000 14.885353 0.000000
								}
							}
						}
					}
				}
				JOINT Backpack
				{
					OFFSET 0.000000 -2.471497 36.677502
					CHANNELS 3 Xrotation Yrotation Zrotation
					End Site
					{
						OFFSET 0.000000 20.427315 0.000000
					}
				}
				JOINT Hood
				{
					OFFSET 0.000000 18.754097 -10.431000
					CHANNELS 3 Xrotation Yrotation Zrotation
					JOINT Hood1
					{
						OFFSET 0.000000 -5.011002 -7.685901
						CHANNELS 3 Xrotation Yrotation Zrotation
						End Site
						{
							OFFSET 0.000000 9.175140 0.000000
						}
					}
				}
				JOINT LHoodieString
				{
					OFFSET 5.250500 16.397697 3.089900
					CHANNELS 3 Xrotation Yrotation Zrotation
					JOINT LHoodieString1
					{
						OFFSET 0.257700 -6.364304 3.694600
						CHANNELS 3 Xrotation Yrotation Zrotation
						JOINT LHoodieString2
						{
							OFFSET 0.000000 -9.643799 2.679100
							CHANNELS 3 Xrotation Yrotation Zrotation
							End Site
							{
								OFFSET 0.000000 10.009018 0.000000
							}
						}
					}
				}
				JOINT RHoodieString
				{
					OFFSET -5.250500 16.397697 3.089900
					CHANNELS 3 Xrotation Yrotation Zrotation
					JOINT RHoodieString1
					{
						OFFSET -0.257700 -6.364304 3.694600
						CHANNELS 3 Xrotation Yrotation Zrotation
						JOINT RHoodieString2
						{
							OFFSET 0.000000 -9.643799 2.679100
							CHANNELS 3 Xrotation Yrotation Zrotation
							End Site
							{
								OFFSET 0.000000 10.009018 0.000000
							}
						}
					}
				}
			}
			JOINT LBackpack_Strap
			{
				OFFSET 15.223200 -7.719803 -6.610900
				CHANNELS 3 Xrotation Yrotation Zrotation
				End Site
				{
					OFFSET 0.000000 16.040596 0.000000
				}
			}
			JOINT RBackpack_Strap
			{
				OFFSET -15.223000 -7.719803 -6.610900
				CHANNELS 3 Xrotation Yrotation Zrotation
				End Site
				{
					OFFSET 0.000000 16.040596 0.000000
				}
			}
		}
	}
	JOINT BoyFacialAnim_Joint
	{
		OFFSET 1.000000 -82.208099 -1.550900
		CHANNELS 3 Xrotation Yrotation Zrotation
		End Site
		{
			OFFSET 0.000000 30.012791 0.000000
		}
	}
}
MOTION
Frames: 4
Frame Time: 0.033333
-1.672681 82.202927 1.019854 -1.989645 -4.947189 -3.119414 -0.000000 0.000000 0.000000 -13.672062 13.316105 11.503296 14.019136 2.358817 5.221500 1.402470 0.665096 -9.720883 0.000000 0.000001 -0.000000 0.000000 0.000001 -0.000000 0.000000 -0.000000 0.000001 -1.091573 -10.092990 4.218126 9.165858 -9.454526 -2.835688 -5.781268 -2.086286 1.920747 0.000000 -0.000000 -0.000000 0.000000 -0.000000 -0.000000 0.000000 -0.000000 0.000000 1.026709 1.608580 1.698587 0.518107 0.334266 1.248086 0.497023 0.364511 1.239037 9.391717 -0.426603 0.132794 20.240350 -2.532404 -1.481797 0.000001 -0.000000 0.000000 0.000001 -0.000000 0.000000 0.000001 -0.000000 0.000000 1.040681 1.409714 -18.749037 25.527984 -22.428726 -34.683909 -0.000011 -103.705125 0.000004 -43.596544 -4.079898 3.919874 -6.852835 1.779374 6.196212 20.468667 25.165315 -6.681014 0.000000 -0.000001 0.000002 7.881515 11.279607 -51.990020 1.169431 3.513506 -36.809238 0.000000 0.000000 -0.000004 8.994523 8.867555 -79.509617 3.469815 5.346128 -65.947881 -0.000000 -0.000000 0.000000 8.051009 8.390590 -85.386428 4.058068 5.570485 -72.126183 -0.000001 -0.000000 0.000001 8.087187 8.162537 -91.041142 2.930041 5.071985 -60.007897 -0.000002 0.000002 0.000000 -0.000003 0.000000 0.000002 -0.658332 13.908581 23.521737 13.364434 3.326424 52.050693 0.000057 103.853784 -0.000060 -15.317753 6.686048 17.012893 13.046419 4.642884 -9.134408 19.947938 -28.752289 10.029183 -0.000003 0.000002 0.000000 7.361048 -8.598652 65.477144 5.160669 -4.629938 96.213350 0.000001 -0.000001 0.000003 5.172787 -7.100185 79.337572 5.717199 -4.535167 103.170738 0.000001 -0.000000 0.000001 3.076934 -6.699420 78.699127 4.382597 -4.649077 86.616491 -0.000000 0.000000 -0.000001 3.444703 -6.797130 81.655519 3.925752 -4.599516 80.954551 -0.000000 -0.000001 -0.000002 0.000000 -0.000001 -0.000000 -0.000000 0.000000 0.000000 -0.000000 0.000000 0.000000 -0.000000 0.000000 0.000000 -0.000000 0.000000 0.000000 -0.000000 0.000000 -0.000000 -0.000000 0.000000 -0.000000 -0.000000 0.000000 0.000000 -0.000000 0.000000 -0.000000 -0.000000 0.000000 -0.000000 -0.000000 0.000000 -0.000000 -0.000000 0.000000 -0.000000 -0.000000 0.000000 0.000000 
-1.666411 82.203278 0.994075 -2.017024 -4.978337 -3.140662 0.000000 0.000000 0.000000 -13.672890 13.336342 11.535910 14.028605 2.359632 5.207130 1.414837 0.663064 -9.715405 -0.000000 -0.000000 0.000000 -0.000000 -0.000000 0.000000 -0.000000 -0.000000 0.000000 -1.080645 -10.089621 4.230338 9.154296 -9.435984 -2.830679 -5.750684 -2.086546 1.911718 -0.000000 -0.000000 0.000000 -0.000000 -0.000000 0.000000 -0.000000 0.000000 0.000000 1.082770 1.648706 1.671340 0.534743 0.345736 1.247162 0.513675 0.374701 1.238712 9.392330 -0.425857 0.130397 20.240813 -2.561811 -1.495714 0.000000 -0.000000 0.000000 0.000000 -0.000000 0.000000 0.000000 -0.000000 0.000000 1.045345 1.469081 -18.736150 26.019163 -23.366518 -34.758792 0.000072 -103.655436 0.000064 -43.457184 -4.443321 4.865731 -6.022170 2.662900 7.147458 20.363092 25.079994 -6.625560 0.000001 -0.000001 0.000002 8.657091 11.718646 -52.941196 1.305578 3.688113 -38.976925 -0.000001 -0.000000 -0.000000 9.339727 8.892705 -80.002327 3.452732 5.338510 -65.764490 0.000001 -0.000001 0.000002 8.259467 8.400369 -85.535750 4.030775 5.561652 -71.844752 -0.000000 0.000000 -0.000000 8.157855 8.147720 -91.413763 2.962181 5.090330 -60.370690 -0.000001 0.000001 -0.000002 -0.000000 -0.000000 0.000003 -0.654251 13.885880 23.510010 13.786530 3.455592 52.066331 0.000003 103.897921 -0.000006 -14.459063 6.538023 16.669138 13.006010 4.606282 -9.181447 20.097973 -28.873313 10.248010 0.000001 0.000001 0.000000 7.356219 -8.586849 65.577268 5.161652 -4.629841 96.225351 -0.000001 -0.000000 0.000002 5.187144 -7.098974 79.501626 5.718993 -4.534770 103.192971 0.000001 0.000002 -0.000003 3.075004 -6.698990 78.694790 4.382519 -4.649081 86.615459 -0.000001 0.000000 0.000002 3.440540 -6.796363 81.638137 3.921807 -4.598888 80.905121 0.000001 0.000000 0.000000 -0.000001 -0.000001 -0.000005 0.000000 0.000000 0.000000 0.000000 0.000000 0.000000 0.000000 0.000000 0.000000 0.000000 0.000000 0.000000 0.000000 0.000000 -0.000000 -0.000000 0.000000 -0.000000 0.000000 0.000000 0.000000 0.000000 0.000000 -0.000000 -0.000000 0.000000 -0.000000 -0.000000 0.000000 0.000000 -0.000000 0.000000 0.000000 0.000000 0.000000 0.000000 
-1.661958 82.204514 0.967149 -2.032999 -4.978066 -3.160373 -0.000000 0.000000 -0.000000 -13.691184 13.339263 11.558510 14.040278 2.361485 5.204747 1.427820 0.660654 -9.713535 -0.000000 0.000001 -0.000000 -0.000000 0.000001 -0.000000 0.000000 -0.000001 0.000001 -1.070796 -10.088978 4.247721 9.126982 -9.431155 -2.820678 -5.715215 -2.086594 1.895181 -0.000000 0.000000 0.000000 -0.000000 0.000000 0.000000 -0.000000 -0.000004 0.000000 1.111337 1.708948 1.659962 0.544008 0.362268 1.246599 0.522732 0.388723 1.237510 9.391198 -0.422830 0.116601 20.260013 -2.581006 -1.548641 -0.000002 -0.000000 -0.000000 -0.000002 -0.000000 -0.000000 -0.000002 -0.000000 -0.000000 1.049909 1.544399 -18.685722 26.249148 -24.279123 -34.696111 0.000134 -103.638483 0.000131 -43.020718 -4.530862 6.240410 -4.964523 3.126250 7.047544 20.258751 24.994917 -6.566060 -0.000000 -0.000001 0.000000 8.854662 11.970298 -52.358864 1.580938 4.003864 -43.080523 -0.000000 0.000002 -0.000003 9.626578 8.972059 -79.670578 3.429377 5.327986 -65.513221 0.000000 -0.000001 0.000002 8.454429 8.433408 -85.201453 3.996358 5.550306 -71.489391 0.000000 -0.000002 0.000001 8.200114 8.149219 -91.347182 2.939561 5.077441 -60.115193 -0.000000 0.000001 -0.000000 0.000001 -0.000001 -0.000000 -0.647812 13.856631 23.482942 14.161718 3.487786 52.132713 -0.000067 103.973620 0.000049 -14.797885 6.425868 16.432361 12.794520 4.707434 -9.372878 19.983884 -28.764034 10.293651 0.000001 0.000000 -0.000001 7.355865 -8.581918 65.627019 5.153964 -4.630658 96.130343 -0.000001 0.000000 0.000002 5.198897 -7.098818 79.598430 5.719445 -4.534679 103.198831 0.000001 0.000000 0.000001 3.073418 -6.698679 78.692973 4.379002 -4.648876 86.571828 0.000001 0.000000 0.000002 3.418504 -6.793316 81.652562 3.917854 -4.598257 80.855916 0.000001 -0.000001 0.000000 0.000001 -0.000000 -0.000001 -0.000000 -0.000000 -0.000000 -0.000000 -0.000000 -0.000000 -0.000000 -0.000000 -0.000000 -0.000000 -0.000000 -0.000000 -0.000000 -0.000000 -0.000000 -0.000000 -0.000000 -0.000000 -0.000000 -0.000000 -0.000000 -0.000000 -0.000000 -0.000000 -0.000000 -0.000000 -0.000000 -0.000000 -0.000000 0.000000 -0.000000 -0.000000 0.000000 -0.000000 0.000000 -0.000000 
-1.655258 82.204689 0.932329 -2.036464 -4.959762 -3.171191 0.000000 -0.000000 -0.000000 -13.726278 13.316179 11.553375 14.050127 2.373568 5.220565 1.443037 0.658120 -9.701738 -0.000000 0.000000 0.000000 -0.000000 0.000000 0.000000 -0.000000 -0.000000 0.000001 -1.098536 -10.087675 4.251029 9.132877 -9.428613 -2.813204 -5.688675 -2.087264 1.885668 0.000000 0.000000 0.000000 0.000000 0.000000 0.000000 0.000000 -0.000003 0.000000 1.125246 1.757715 1.677500 0.545564 0.375351 1.246555 0.524152 0.400240 1.235456 9.388530 -0.412120 0.085073 20.291744 -2.500097 -1.677586 0.000002 -0.000000 0.000000 0.000002 -0.000000 0.000000 0.000002 -0.000000 0.000000 1.052340 1.571215 -18.663226 26.184925 -24.986628 -34.570941 0.000066 -103.492481 0.000062 -42.862627 -4.590229 7.144352 -3.093055 3.656787 6.399304 20.155791 24.910258 -6.502396 0.000001 0.000002 -0.000001 8.889452 12.234113 -51.072678 2.061119 4.460978 -49.579568 0.000000 -0.000000 -0.000002 9.915951 9.115060 -78.693622 3.397465 5.313395 -65.169143 -0.000000 0.000000 0.000000 8.601095 8.485959 -84.488668 3.929565 5.527599 -70.797370 -0.000001 0.000000 0.000001 8.184064 8.162951 -90.988427 2.864821 5.033912 -59.267218 0.000000 0.000001 -0.000000 -0.000002 -0.000000 0.000004 -0.643421 13.850928 23.460487 14.346915 3.373214 52.306347 0.000123 104.126719 -0.000118 -15.042653 6.327489 16.345170 12.812953 4.850190 -9.354208 19.941646 -28.761551 10.337637 0.000000 0.000000 -0.000003 7.349301 -8.578777 65.628945 5.154259 -4.630633 96.133663 -0.000000 -0.000000 0.000003 5.188688 -7.097653 79.568507 5.719110 -4.534734 103.194746 0.000001 0.000001 0.000002 3.071679 -6.698327 78.693082 4.371734 -4.648431 86.482161 -0.000001 0.000000 0.000000 3.396209 -6.789631 81.612073 3.913937 -4.597650 80.806937 0.000000 0.000001 0.000002 0.000001 0.000000 -0.000000 0.000000 -0.000000 -0.000000 0.000000 -0.000000 -0.000000 0.000000 -0.000000 -0.000000 0.000000 -0.000000 -0.000000 0.000000 -0.000000 -0.000000 0.000000 0.000000 -0.000000 0.000000 -0.000000 -0.000000 0.000000 -0.000000 -0.000000 0.000000 0.000000 -0.000000 0.000000 -0.000000 0.000000 0.000000 -0.000000 0.000000 0.000000 -0.000000 -0.000000 
